<mxfile host="app.diagrams.net" modified="2022-05-02T03:40:16.181Z" agent="5.0 (Windows NT 10.0; Win64; x64) AppleWebKit/537.36 (KHTML, like Gecko) Chrome/101.0.4951.41 Safari/537.36" etag="qfjkCjpqT3rBVrU0Jn3w" version="17.4.6" type="github">
  <diagram id="C5RBs43oDa-KdzZeNtuy" name="Page-1">
    <mxGraphModel dx="1422" dy="839" grid="1" gridSize="10" guides="1" tooltips="1" connect="1" arrows="1" fold="1" page="1" pageScale="1" pageWidth="827" pageHeight="1169" math="0" shadow="0">
      <root>
        <mxCell id="WIyWlLk6GJQsqaUBKTNV-0" />
        <mxCell id="WIyWlLk6GJQsqaUBKTNV-1" parent="WIyWlLk6GJQsqaUBKTNV-0" />
        <mxCell id="zEoyoQ_A2az6b-zezW40-8" value="" style="edgeStyle=orthogonalEdgeStyle;rounded=0;orthogonalLoop=1;jettySize=auto;html=1;" edge="1" parent="WIyWlLk6GJQsqaUBKTNV-1" source="WIyWlLk6GJQsqaUBKTNV-3" target="zEoyoQ_A2az6b-zezW40-4">
          <mxGeometry relative="1" as="geometry" />
        </mxCell>
        <mxCell id="WIyWlLk6GJQsqaUBKTNV-3" value="货币兑换" style="rounded=1;whiteSpace=wrap;html=1;fontSize=12;glass=0;strokeWidth=1;shadow=0;" parent="WIyWlLk6GJQsqaUBKTNV-1" vertex="1">
          <mxGeometry x="161" y="90" width="120" height="40" as="geometry" />
        </mxCell>
        <mxCell id="36pKezdzuMbXKm07dZ7W-1" value="" style="edgeStyle=orthogonalEdgeStyle;rounded=0;orthogonalLoop=1;jettySize=auto;html=1;" parent="WIyWlLk6GJQsqaUBKTNV-1" source="WIyWlLk6GJQsqaUBKTNV-6" target="WIyWlLk6GJQsqaUBKTNV-7" edge="1">
          <mxGeometry relative="1" as="geometry" />
        </mxCell>
        <mxCell id="36pKezdzuMbXKm07dZ7W-5" value="" style="edgeStyle=orthogonalEdgeStyle;rounded=0;orthogonalLoop=1;jettySize=auto;html=1;" parent="WIyWlLk6GJQsqaUBKTNV-1" source="WIyWlLk6GJQsqaUBKTNV-6" target="WIyWlLk6GJQsqaUBKTNV-10" edge="1">
          <mxGeometry relative="1" as="geometry" />
        </mxCell>
        <mxCell id="WIyWlLk6GJQsqaUBKTNV-6" value="校验触点端编码是否存在" style="rhombus;whiteSpace=wrap;html=1;shadow=0;fontFamily=Helvetica;fontSize=12;align=center;strokeWidth=1;spacing=6;spacingTop=-4;" parent="WIyWlLk6GJQsqaUBKTNV-1" vertex="1">
          <mxGeometry x="136" y="290" width="170" height="70" as="geometry" />
        </mxCell>
        <mxCell id="WIyWlLk6GJQsqaUBKTNV-7" value="抛出异常" style="rounded=1;whiteSpace=wrap;html=1;fontSize=12;glass=0;strokeWidth=1;shadow=0;" parent="WIyWlLk6GJQsqaUBKTNV-1" vertex="1">
          <mxGeometry x="351" y="305" width="120" height="40" as="geometry" />
        </mxCell>
        <mxCell id="36pKezdzuMbXKm07dZ7W-8" value="" style="edgeStyle=orthogonalEdgeStyle;rounded=0;orthogonalLoop=1;jettySize=auto;html=1;" parent="WIyWlLk6GJQsqaUBKTNV-1" source="WIyWlLk6GJQsqaUBKTNV-10" target="36pKezdzuMbXKm07dZ7W-7" edge="1">
          <mxGeometry relative="1" as="geometry" />
        </mxCell>
        <mxCell id="36pKezdzuMbXKm07dZ7W-11" style="edgeStyle=orthogonalEdgeStyle;rounded=0;orthogonalLoop=1;jettySize=auto;html=1;exitX=0.5;exitY=1;exitDx=0;exitDy=0;entryX=0.5;entryY=0;entryDx=0;entryDy=0;" parent="WIyWlLk6GJQsqaUBKTNV-1" source="WIyWlLk6GJQsqaUBKTNV-10" target="36pKezdzuMbXKm07dZ7W-10" edge="1">
          <mxGeometry relative="1" as="geometry" />
        </mxCell>
        <mxCell id="WIyWlLk6GJQsqaUBKTNV-10" value="校验策略编码&lt;br&gt;是否存在" style="rhombus;whiteSpace=wrap;html=1;shadow=0;fontFamily=Helvetica;fontSize=12;align=center;strokeWidth=1;spacing=6;spacingTop=-4;" parent="WIyWlLk6GJQsqaUBKTNV-1" vertex="1">
          <mxGeometry x="148.5" y="420" width="145" height="60" as="geometry" />
        </mxCell>
        <mxCell id="36pKezdzuMbXKm07dZ7W-2" value="否" style="text;html=1;strokeColor=none;fillColor=none;align=center;verticalAlign=middle;whiteSpace=wrap;rounded=0;" parent="WIyWlLk6GJQsqaUBKTNV-1" vertex="1">
          <mxGeometry x="321" y="305" width="20" height="20" as="geometry" />
        </mxCell>
        <mxCell id="36pKezdzuMbXKm07dZ7W-6" value="是" style="text;html=1;strokeColor=none;fillColor=none;align=center;verticalAlign=middle;whiteSpace=wrap;rounded=0;" parent="WIyWlLk6GJQsqaUBKTNV-1" vertex="1">
          <mxGeometry x="221" y="360" width="20" height="20" as="geometry" />
        </mxCell>
        <mxCell id="36pKezdzuMbXKm07dZ7W-7" value="抛出异常" style="rounded=1;whiteSpace=wrap;html=1;fontSize=12;glass=0;strokeWidth=1;shadow=0;" parent="WIyWlLk6GJQsqaUBKTNV-1" vertex="1">
          <mxGeometry x="351" y="430" width="120" height="40" as="geometry" />
        </mxCell>
        <mxCell id="36pKezdzuMbXKm07dZ7W-9" value="否" style="text;html=1;strokeColor=none;fillColor=none;align=center;verticalAlign=middle;whiteSpace=wrap;rounded=0;" parent="WIyWlLk6GJQsqaUBKTNV-1" vertex="1">
          <mxGeometry x="321" y="430" width="20" height="20" as="geometry" />
        </mxCell>
        <mxCell id="36pKezdzuMbXKm07dZ7W-13" value="" style="edgeStyle=orthogonalEdgeStyle;rounded=0;orthogonalLoop=1;jettySize=auto;html=1;" parent="WIyWlLk6GJQsqaUBKTNV-1" source="36pKezdzuMbXKm07dZ7W-10" target="36pKezdzuMbXKm07dZ7W-12" edge="1">
          <mxGeometry relative="1" as="geometry" />
        </mxCell>
        <mxCell id="36pKezdzuMbXKm07dZ7W-19" style="edgeStyle=orthogonalEdgeStyle;rounded=0;orthogonalLoop=1;jettySize=auto;html=1;exitX=0.5;exitY=1;exitDx=0;exitDy=0;" parent="WIyWlLk6GJQsqaUBKTNV-1" source="36pKezdzuMbXKm07dZ7W-10" target="36pKezdzuMbXKm07dZ7W-15" edge="1">
          <mxGeometry relative="1" as="geometry" />
        </mxCell>
        <mxCell id="36pKezdzuMbXKm07dZ7W-10" value="校验货币编码是否存在" style="rhombus;whiteSpace=wrap;html=1;shadow=0;fontFamily=Helvetica;fontSize=12;align=center;strokeWidth=1;spacing=6;spacingTop=-4;" parent="WIyWlLk6GJQsqaUBKTNV-1" vertex="1">
          <mxGeometry x="144.75" y="520" width="152.5" height="70" as="geometry" />
        </mxCell>
        <mxCell id="36pKezdzuMbXKm07dZ7W-12" value="抛出异常" style="rounded=1;whiteSpace=wrap;html=1;fontSize=12;glass=0;strokeWidth=1;shadow=0;" parent="WIyWlLk6GJQsqaUBKTNV-1" vertex="1">
          <mxGeometry x="351" y="535" width="120" height="40" as="geometry" />
        </mxCell>
        <mxCell id="36pKezdzuMbXKm07dZ7W-14" value="否" style="text;html=1;strokeColor=none;fillColor=none;align=center;verticalAlign=middle;whiteSpace=wrap;rounded=0;" parent="WIyWlLk6GJQsqaUBKTNV-1" vertex="1">
          <mxGeometry x="321" y="535" width="20" height="20" as="geometry" />
        </mxCell>
        <mxCell id="36pKezdzuMbXKm07dZ7W-17" value="" style="edgeStyle=orthogonalEdgeStyle;rounded=0;orthogonalLoop=1;jettySize=auto;html=1;" parent="WIyWlLk6GJQsqaUBKTNV-1" source="36pKezdzuMbXKm07dZ7W-15" target="36pKezdzuMbXKm07dZ7W-16" edge="1">
          <mxGeometry relative="1" as="geometry" />
        </mxCell>
        <mxCell id="36pKezdzuMbXKm07dZ7W-21" style="edgeStyle=orthogonalEdgeStyle;rounded=0;orthogonalLoop=1;jettySize=auto;html=1;exitX=0.5;exitY=1;exitDx=0;exitDy=0;entryX=0.5;entryY=0;entryDx=0;entryDy=0;" parent="WIyWlLk6GJQsqaUBKTNV-1" source="36pKezdzuMbXKm07dZ7W-15" target="36pKezdzuMbXKm07dZ7W-20" edge="1">
          <mxGeometry relative="1" as="geometry" />
        </mxCell>
        <mxCell id="36pKezdzuMbXKm07dZ7W-15" value="校验货币编码、触点编码、策略编码关联关系是否正确" style="rhombus;whiteSpace=wrap;html=1;shadow=0;fontFamily=Helvetica;fontSize=12;align=center;strokeWidth=1;spacing=6;spacingTop=-4;" parent="WIyWlLk6GJQsqaUBKTNV-1" vertex="1">
          <mxGeometry x="127.88" y="630" width="186.25" height="90" as="geometry" />
        </mxCell>
        <mxCell id="36pKezdzuMbXKm07dZ7W-16" value="抛出异常" style="rounded=1;whiteSpace=wrap;html=1;fontSize=12;glass=0;strokeWidth=1;shadow=0;" parent="WIyWlLk6GJQsqaUBKTNV-1" vertex="1">
          <mxGeometry x="351" y="655" width="120" height="40" as="geometry" />
        </mxCell>
        <mxCell id="36pKezdzuMbXKm07dZ7W-18" value="否" style="text;html=1;strokeColor=none;fillColor=none;align=center;verticalAlign=middle;whiteSpace=wrap;rounded=0;" parent="WIyWlLk6GJQsqaUBKTNV-1" vertex="1">
          <mxGeometry x="321" y="650" width="20" height="20" as="geometry" />
        </mxCell>
        <mxCell id="36pKezdzuMbXKm07dZ7W-23" value="" style="edgeStyle=orthogonalEdgeStyle;rounded=0;orthogonalLoop=1;jettySize=auto;html=1;" parent="WIyWlLk6GJQsqaUBKTNV-1" source="36pKezdzuMbXKm07dZ7W-20" target="36pKezdzuMbXKm07dZ7W-22" edge="1">
          <mxGeometry relative="1" as="geometry" />
        </mxCell>
        <mxCell id="36pKezdzuMbXKm07dZ7W-29" value="" style="edgeStyle=orthogonalEdgeStyle;rounded=0;orthogonalLoop=1;jettySize=auto;html=1;" parent="WIyWlLk6GJQsqaUBKTNV-1" source="36pKezdzuMbXKm07dZ7W-20" target="36pKezdzuMbXKm07dZ7W-28" edge="1">
          <mxGeometry relative="1" as="geometry" />
        </mxCell>
        <mxCell id="36pKezdzuMbXKm07dZ7W-20" value="策略与货币值参数验证" style="rhombus;whiteSpace=wrap;html=1;shadow=0;fontFamily=Helvetica;fontSize=12;align=center;strokeWidth=1;spacing=6;spacingTop=-4;" parent="WIyWlLk6GJQsqaUBKTNV-1" vertex="1">
          <mxGeometry x="144.75" y="760" width="152.5" height="70" as="geometry" />
        </mxCell>
        <mxCell id="36pKezdzuMbXKm07dZ7W-22" value="抛出异常" style="rounded=1;whiteSpace=wrap;html=1;fontSize=12;glass=0;strokeWidth=1;shadow=0;" parent="WIyWlLk6GJQsqaUBKTNV-1" vertex="1">
          <mxGeometry x="351" y="775" width="120" height="40" as="geometry" />
        </mxCell>
        <mxCell id="36pKezdzuMbXKm07dZ7W-24" value="否" style="text;html=1;strokeColor=none;fillColor=none;align=center;verticalAlign=middle;whiteSpace=wrap;rounded=0;" parent="WIyWlLk6GJQsqaUBKTNV-1" vertex="1">
          <mxGeometry x="321" y="775" width="20" height="20" as="geometry" />
        </mxCell>
        <mxCell id="36pKezdzuMbXKm07dZ7W-25" value="是" style="text;html=1;strokeColor=none;fillColor=none;align=center;verticalAlign=middle;whiteSpace=wrap;rounded=0;" parent="WIyWlLk6GJQsqaUBKTNV-1" vertex="1">
          <mxGeometry x="221" y="480" width="20" height="20" as="geometry" />
        </mxCell>
        <mxCell id="36pKezdzuMbXKm07dZ7W-26" value="是" style="text;html=1;strokeColor=none;fillColor=none;align=center;verticalAlign=middle;whiteSpace=wrap;rounded=0;" parent="WIyWlLk6GJQsqaUBKTNV-1" vertex="1">
          <mxGeometry x="221" y="590" width="20" height="20" as="geometry" />
        </mxCell>
        <mxCell id="36pKezdzuMbXKm07dZ7W-27" value="是" style="text;html=1;strokeColor=none;fillColor=none;align=center;verticalAlign=middle;whiteSpace=wrap;rounded=0;" parent="WIyWlLk6GJQsqaUBKTNV-1" vertex="1">
          <mxGeometry x="221" y="720" width="20" height="20" as="geometry" />
        </mxCell>
        <mxCell id="36pKezdzuMbXKm07dZ7W-31" style="edgeStyle=orthogonalEdgeStyle;rounded=0;orthogonalLoop=1;jettySize=auto;html=1;exitX=1;exitY=0.5;exitDx=0;exitDy=0;entryX=0;entryY=0.5;entryDx=0;entryDy=0;" parent="WIyWlLk6GJQsqaUBKTNV-1" source="36pKezdzuMbXKm07dZ7W-28" target="36pKezdzuMbXKm07dZ7W-30" edge="1">
          <mxGeometry relative="1" as="geometry" />
        </mxCell>
        <mxCell id="36pKezdzuMbXKm07dZ7W-35" value="" style="edgeStyle=orthogonalEdgeStyle;rounded=0;orthogonalLoop=1;jettySize=auto;html=1;" parent="WIyWlLk6GJQsqaUBKTNV-1" source="36pKezdzuMbXKm07dZ7W-28" target="36pKezdzuMbXKm07dZ7W-34" edge="1">
          <mxGeometry relative="1" as="geometry" />
        </mxCell>
        <mxCell id="36pKezdzuMbXKm07dZ7W-28" value="查询账号是否存在" style="rhombus;whiteSpace=wrap;html=1;shadow=0;fontFamily=Helvetica;fontSize=12;align=center;strokeWidth=1;spacing=6;spacingTop=-4;" parent="WIyWlLk6GJQsqaUBKTNV-1" vertex="1">
          <mxGeometry x="144.75" y="870" width="152.5" height="70" as="geometry" />
        </mxCell>
        <mxCell id="36pKezdzuMbXKm07dZ7W-36" style="edgeStyle=orthogonalEdgeStyle;rounded=0;orthogonalLoop=1;jettySize=auto;html=1;exitX=0.5;exitY=1;exitDx=0;exitDy=0;entryX=1;entryY=0.5;entryDx=0;entryDy=0;" parent="WIyWlLk6GJQsqaUBKTNV-1" source="36pKezdzuMbXKm07dZ7W-30" target="36pKezdzuMbXKm07dZ7W-34" edge="1">
          <mxGeometry relative="1" as="geometry" />
        </mxCell>
        <mxCell id="36pKezdzuMbXKm07dZ7W-30" value="创建账号" style="rounded=1;whiteSpace=wrap;html=1;fontSize=12;glass=0;strokeWidth=1;shadow=0;" parent="WIyWlLk6GJQsqaUBKTNV-1" vertex="1">
          <mxGeometry x="355" y="885" width="120" height="40" as="geometry" />
        </mxCell>
        <mxCell id="36pKezdzuMbXKm07dZ7W-32" value="否" style="text;html=1;strokeColor=none;fillColor=none;align=center;verticalAlign=middle;whiteSpace=wrap;rounded=0;" parent="WIyWlLk6GJQsqaUBKTNV-1" vertex="1">
          <mxGeometry x="331" y="885" width="20" height="20" as="geometry" />
        </mxCell>
        <mxCell id="36pKezdzuMbXKm07dZ7W-90" style="edgeStyle=orthogonalEdgeStyle;rounded=0;orthogonalLoop=1;jettySize=auto;html=1;exitX=0.5;exitY=1;exitDx=0;exitDy=0;entryX=0.5;entryY=0;entryDx=0;entryDy=0;" parent="WIyWlLk6GJQsqaUBKTNV-1" source="36pKezdzuMbXKm07dZ7W-34" target="36pKezdzuMbXKm07dZ7W-38" edge="1">
          <mxGeometry relative="1" as="geometry" />
        </mxCell>
        <mxCell id="36pKezdzuMbXKm07dZ7W-34" value="获取账号信息" style="rounded=1;whiteSpace=wrap;html=1;fontSize=12;glass=0;strokeWidth=1;shadow=0;" parent="WIyWlLk6GJQsqaUBKTNV-1" vertex="1">
          <mxGeometry x="161" y="980" width="120" height="40" as="geometry" />
        </mxCell>
        <mxCell id="36pKezdzuMbXKm07dZ7W-91" style="edgeStyle=orthogonalEdgeStyle;rounded=0;orthogonalLoop=1;jettySize=auto;html=1;exitX=0.5;exitY=1;exitDx=0;exitDy=0;entryX=0.5;entryY=0;entryDx=0;entryDy=0;" parent="WIyWlLk6GJQsqaUBKTNV-1" source="36pKezdzuMbXKm07dZ7W-38" target="36pKezdzuMbXKm07dZ7W-39" edge="1">
          <mxGeometry relative="1" as="geometry" />
        </mxCell>
        <mxCell id="36pKezdzuMbXKm07dZ7W-38" value="根据货币策略计算变更的货币值" style="rounded=1;whiteSpace=wrap;html=1;fontSize=12;glass=0;strokeWidth=1;shadow=0;" parent="WIyWlLk6GJQsqaUBKTNV-1" vertex="1">
          <mxGeometry x="161.01" y="1050" width="120" height="40" as="geometry" />
        </mxCell>
        <mxCell id="36pKezdzuMbXKm07dZ7W-92" style="edgeStyle=orthogonalEdgeStyle;rounded=0;orthogonalLoop=1;jettySize=auto;html=1;exitX=0.5;exitY=1;exitDx=0;exitDy=0;" parent="WIyWlLk6GJQsqaUBKTNV-1" source="36pKezdzuMbXKm07dZ7W-39" target="36pKezdzuMbXKm07dZ7W-51" edge="1">
          <mxGeometry relative="1" as="geometry" />
        </mxCell>
        <mxCell id="36pKezdzuMbXKm07dZ7W-39" value="根据等级计算系数" style="rounded=1;whiteSpace=wrap;html=1;fontSize=12;glass=0;strokeWidth=1;shadow=0;" parent="WIyWlLk6GJQsqaUBKTNV-1" vertex="1">
          <mxGeometry x="161.01" y="1120" width="120" height="40" as="geometry" />
        </mxCell>
        <mxCell id="36pKezdzuMbXKm07dZ7W-68" value="" style="edgeStyle=orthogonalEdgeStyle;rounded=0;orthogonalLoop=1;jettySize=auto;html=1;" parent="WIyWlLk6GJQsqaUBKTNV-1" source="36pKezdzuMbXKm07dZ7W-45" target="36pKezdzuMbXKm07dZ7W-46" edge="1">
          <mxGeometry relative="1" as="geometry" />
        </mxCell>
        <mxCell id="zEoyoQ_A2az6b-zezW40-6" value="" style="edgeStyle=orthogonalEdgeStyle;rounded=0;orthogonalLoop=1;jettySize=auto;html=1;" edge="1" parent="WIyWlLk6GJQsqaUBKTNV-1" source="36pKezdzuMbXKm07dZ7W-45" target="36pKezdzuMbXKm07dZ7W-74">
          <mxGeometry relative="1" as="geometry">
            <Array as="points">
              <mxPoint x="360" y="1425" />
              <mxPoint x="360" y="1425" />
            </Array>
          </mxGeometry>
        </mxCell>
        <mxCell id="36pKezdzuMbXKm07dZ7W-45" value="是否自动兑换" style="rhombus;whiteSpace=wrap;html=1;shadow=0;fontFamily=Helvetica;fontSize=12;align=center;strokeWidth=1;spacing=6;spacingTop=-4;" parent="WIyWlLk6GJQsqaUBKTNV-1" vertex="1">
          <mxGeometry x="148.06" y="1390" width="144.37" height="70" as="geometry" />
        </mxCell>
        <mxCell id="36pKezdzuMbXKm07dZ7W-70" value="" style="edgeStyle=orthogonalEdgeStyle;rounded=0;orthogonalLoop=1;jettySize=auto;html=1;" parent="WIyWlLk6GJQsqaUBKTNV-1" source="36pKezdzuMbXKm07dZ7W-46" target="36pKezdzuMbXKm07dZ7W-69" edge="1">
          <mxGeometry relative="1" as="geometry" />
        </mxCell>
        <mxCell id="36pKezdzuMbXKm07dZ7W-76" value="" style="edgeStyle=orthogonalEdgeStyle;rounded=0;orthogonalLoop=1;jettySize=auto;html=1;" parent="WIyWlLk6GJQsqaUBKTNV-1" source="36pKezdzuMbXKm07dZ7W-46" target="36pKezdzuMbXKm07dZ7W-48" edge="1">
          <mxGeometry relative="1" as="geometry" />
        </mxCell>
        <mxCell id="36pKezdzuMbXKm07dZ7W-46" value="是否计算排行榜" style="rhombus;whiteSpace=wrap;html=1;shadow=0;fontFamily=Helvetica;fontSize=12;align=center;strokeWidth=1;spacing=6;spacingTop=-4;" parent="WIyWlLk6GJQsqaUBKTNV-1" vertex="1">
          <mxGeometry x="144" y="1505" width="152.5" height="70" as="geometry" />
        </mxCell>
        <mxCell id="36pKezdzuMbXKm07dZ7W-79" value="" style="edgeStyle=orthogonalEdgeStyle;rounded=0;orthogonalLoop=1;jettySize=auto;html=1;" parent="WIyWlLk6GJQsqaUBKTNV-1" source="36pKezdzuMbXKm07dZ7W-48" target="36pKezdzuMbXKm07dZ7W-49" edge="1">
          <mxGeometry relative="1" as="geometry" />
        </mxCell>
        <mxCell id="36pKezdzuMbXKm07dZ7W-48" value="增加流水" style="rounded=1;whiteSpace=wrap;html=1;fontSize=12;glass=0;strokeWidth=1;shadow=0;" parent="WIyWlLk6GJQsqaUBKTNV-1" vertex="1">
          <mxGeometry x="160.25" y="1630" width="120" height="40" as="geometry" />
        </mxCell>
        <mxCell id="zEoyoQ_A2az6b-zezW40-1" value="" style="edgeStyle=orthogonalEdgeStyle;rounded=0;orthogonalLoop=1;jettySize=auto;html=1;" edge="1" parent="WIyWlLk6GJQsqaUBKTNV-1" source="36pKezdzuMbXKm07dZ7W-49" target="zEoyoQ_A2az6b-zezW40-0">
          <mxGeometry relative="1" as="geometry" />
        </mxCell>
        <mxCell id="zEoyoQ_A2az6b-zezW40-3" value="" style="edgeStyle=orthogonalEdgeStyle;rounded=0;orthogonalLoop=1;jettySize=auto;html=1;" edge="1" parent="WIyWlLk6GJQsqaUBKTNV-1" source="36pKezdzuMbXKm07dZ7W-49" target="zEoyoQ_A2az6b-zezW40-2">
          <mxGeometry relative="1" as="geometry" />
        </mxCell>
        <mxCell id="36pKezdzuMbXKm07dZ7W-49" value="MQ发送流水" style="rounded=1;whiteSpace=wrap;html=1;fontSize=12;glass=0;strokeWidth=1;shadow=0;" parent="WIyWlLk6GJQsqaUBKTNV-1" vertex="1">
          <mxGeometry x="160.25" y="1720" width="120" height="40" as="geometry" />
        </mxCell>
        <mxCell id="36pKezdzuMbXKm07dZ7W-54" style="edgeStyle=orthogonalEdgeStyle;rounded=0;orthogonalLoop=1;jettySize=auto;html=1;exitX=1;exitY=0.5;exitDx=0;exitDy=0;" parent="WIyWlLk6GJQsqaUBKTNV-1" source="36pKezdzuMbXKm07dZ7W-51" target="36pKezdzuMbXKm07dZ7W-52" edge="1">
          <mxGeometry relative="1" as="geometry" />
        </mxCell>
        <mxCell id="36pKezdzuMbXKm07dZ7W-94" value="" style="edgeStyle=orthogonalEdgeStyle;rounded=0;orthogonalLoop=1;jettySize=auto;html=1;" parent="WIyWlLk6GJQsqaUBKTNV-1" source="36pKezdzuMbXKm07dZ7W-51" target="36pKezdzuMbXKm07dZ7W-93" edge="1">
          <mxGeometry relative="1" as="geometry" />
        </mxCell>
        <mxCell id="36pKezdzuMbXKm07dZ7W-51" value="校验账号是否够扣减" style="rhombus;whiteSpace=wrap;html=1;shadow=0;fontFamily=Helvetica;fontSize=12;align=center;strokeWidth=1;spacing=6;spacingTop=-4;" parent="WIyWlLk6GJQsqaUBKTNV-1" vertex="1">
          <mxGeometry x="144.76" y="1182" width="152.5" height="68" as="geometry" />
        </mxCell>
        <mxCell id="36pKezdzuMbXKm07dZ7W-52" value="抛出异常" style="rounded=1;whiteSpace=wrap;html=1;fontSize=12;glass=0;strokeWidth=1;shadow=0;" parent="WIyWlLk6GJQsqaUBKTNV-1" vertex="1">
          <mxGeometry x="355.22" y="1196" width="120" height="40" as="geometry" />
        </mxCell>
        <mxCell id="36pKezdzuMbXKm07dZ7W-53" value="否" style="text;html=1;strokeColor=none;fillColor=none;align=center;verticalAlign=middle;whiteSpace=wrap;rounded=0;" parent="WIyWlLk6GJQsqaUBKTNV-1" vertex="1">
          <mxGeometry x="331" y="1190" width="20" height="20" as="geometry" />
        </mxCell>
        <mxCell id="36pKezdzuMbXKm07dZ7W-66" value="" style="edgeStyle=orthogonalEdgeStyle;rounded=0;orthogonalLoop=1;jettySize=auto;html=1;" parent="WIyWlLk6GJQsqaUBKTNV-1" source="36pKezdzuMbXKm07dZ7W-61" target="36pKezdzuMbXKm07dZ7W-63" edge="1">
          <mxGeometry relative="1" as="geometry" />
        </mxCell>
        <mxCell id="36pKezdzuMbXKm07dZ7W-61" value="计算源账号最后的值" style="rounded=1;whiteSpace=wrap;html=1;fontSize=12;glass=0;strokeWidth=1;shadow=0;" parent="WIyWlLk6GJQsqaUBKTNV-1" vertex="1">
          <mxGeometry x="356.43" y="1405" width="120" height="40" as="geometry" />
        </mxCell>
        <mxCell id="36pKezdzuMbXKm07dZ7W-64" style="edgeStyle=orthogonalEdgeStyle;rounded=0;orthogonalLoop=1;jettySize=auto;html=1;exitX=0.5;exitY=1;exitDx=0;exitDy=0;entryX=1;entryY=0.5;entryDx=0;entryDy=0;" parent="WIyWlLk6GJQsqaUBKTNV-1" source="36pKezdzuMbXKm07dZ7W-63" target="36pKezdzuMbXKm07dZ7W-48" edge="1">
          <mxGeometry relative="1" as="geometry" />
        </mxCell>
        <mxCell id="36pKezdzuMbXKm07dZ7W-63" value="计算去向账号最后的值" style="rounded=1;whiteSpace=wrap;html=1;fontSize=12;glass=0;strokeWidth=1;shadow=0;" parent="WIyWlLk6GJQsqaUBKTNV-1" vertex="1">
          <mxGeometry x="532.43" y="1405" width="140" height="40" as="geometry" />
        </mxCell>
        <mxCell id="36pKezdzuMbXKm07dZ7W-69" value="异步计算排行榜" style="rounded=1;whiteSpace=wrap;html=1;fontSize=12;glass=0;strokeWidth=1;shadow=0;" parent="WIyWlLk6GJQsqaUBKTNV-1" vertex="1">
          <mxGeometry x="356.43" y="1520" width="120" height="40" as="geometry" />
        </mxCell>
        <mxCell id="36pKezdzuMbXKm07dZ7W-72" value="是" style="text;html=1;strokeColor=none;fillColor=none;align=center;verticalAlign=middle;whiteSpace=wrap;rounded=0;" parent="WIyWlLk6GJQsqaUBKTNV-1" vertex="1">
          <mxGeometry x="332.43" y="1520" width="20" height="20" as="geometry" />
        </mxCell>
        <mxCell id="36pKezdzuMbXKm07dZ7W-74" value="是" style="text;html=1;strokeColor=none;fillColor=none;align=center;verticalAlign=middle;whiteSpace=wrap;rounded=0;" parent="WIyWlLk6GJQsqaUBKTNV-1" vertex="1">
          <mxGeometry x="336.43" y="1405" width="20" height="20" as="geometry" />
        </mxCell>
        <mxCell id="36pKezdzuMbXKm07dZ7W-75" value="否" style="text;html=1;strokeColor=none;fillColor=none;align=center;verticalAlign=middle;whiteSpace=wrap;rounded=0;" parent="WIyWlLk6GJQsqaUBKTNV-1" vertex="1">
          <mxGeometry x="222.43" y="1460" width="20" height="20" as="geometry" />
        </mxCell>
        <mxCell id="36pKezdzuMbXKm07dZ7W-77" value="否" style="text;html=1;strokeColor=none;fillColor=none;align=center;verticalAlign=middle;whiteSpace=wrap;rounded=0;" parent="WIyWlLk6GJQsqaUBKTNV-1" vertex="1">
          <mxGeometry x="222.43" y="1575" width="20" height="20" as="geometry" />
        </mxCell>
        <mxCell id="36pKezdzuMbXKm07dZ7W-96" value="" style="edgeStyle=orthogonalEdgeStyle;rounded=0;orthogonalLoop=1;jettySize=auto;html=1;" parent="WIyWlLk6GJQsqaUBKTNV-1" source="36pKezdzuMbXKm07dZ7W-93" target="36pKezdzuMbXKm07dZ7W-95" edge="1">
          <mxGeometry relative="1" as="geometry" />
        </mxCell>
        <mxCell id="36pKezdzuMbXKm07dZ7W-99" style="edgeStyle=orthogonalEdgeStyle;rounded=0;orthogonalLoop=1;jettySize=auto;html=1;exitX=0.5;exitY=1;exitDx=0;exitDy=0;entryX=0.5;entryY=0;entryDx=0;entryDy=0;" parent="WIyWlLk6GJQsqaUBKTNV-1" source="36pKezdzuMbXKm07dZ7W-93" target="36pKezdzuMbXKm07dZ7W-45" edge="1">
          <mxGeometry relative="1" as="geometry">
            <mxPoint x="221" y="1380" as="targetPoint" />
          </mxGeometry>
        </mxCell>
        <mxCell id="36pKezdzuMbXKm07dZ7W-93" value="校验限制数量 获取总值" style="rhombus;whiteSpace=wrap;html=1;shadow=0;fontFamily=Helvetica;fontSize=12;align=center;strokeWidth=1;spacing=6;spacingTop=-4;" parent="WIyWlLk6GJQsqaUBKTNV-1" vertex="1">
          <mxGeometry x="144.75" y="1284" width="152.5" height="60" as="geometry" />
        </mxCell>
        <mxCell id="36pKezdzuMbXKm07dZ7W-95" value="抛出异常" style="rounded=1;whiteSpace=wrap;html=1;fontSize=12;glass=0;strokeWidth=1;shadow=0;" parent="WIyWlLk6GJQsqaUBKTNV-1" vertex="1">
          <mxGeometry x="355" y="1294" width="120" height="40" as="geometry" />
        </mxCell>
        <mxCell id="36pKezdzuMbXKm07dZ7W-97" value="否" style="text;html=1;strokeColor=none;fillColor=none;align=center;verticalAlign=middle;whiteSpace=wrap;rounded=0;" parent="WIyWlLk6GJQsqaUBKTNV-1" vertex="1">
          <mxGeometry x="335" y="1294" width="20" height="20" as="geometry" />
        </mxCell>
        <mxCell id="36pKezdzuMbXKm07dZ7W-101" value="是" style="text;html=1;strokeColor=none;fillColor=none;align=center;verticalAlign=middle;whiteSpace=wrap;rounded=0;" parent="WIyWlLk6GJQsqaUBKTNV-1" vertex="1">
          <mxGeometry x="221" y="830" width="20" height="20" as="geometry" />
        </mxCell>
        <mxCell id="36pKezdzuMbXKm07dZ7W-102" value="是" style="text;html=1;strokeColor=none;fillColor=none;align=center;verticalAlign=middle;whiteSpace=wrap;rounded=0;" parent="WIyWlLk6GJQsqaUBKTNV-1" vertex="1">
          <mxGeometry x="221" y="940" width="20" height="20" as="geometry" />
        </mxCell>
        <mxCell id="36pKezdzuMbXKm07dZ7W-103" value="是" style="text;html=1;strokeColor=none;fillColor=none;align=center;verticalAlign=middle;whiteSpace=wrap;rounded=0;" parent="WIyWlLk6GJQsqaUBKTNV-1" vertex="1">
          <mxGeometry x="221" y="1250" width="20" height="20" as="geometry" />
        </mxCell>
        <mxCell id="36pKezdzuMbXKm07dZ7W-105" value="是" style="text;html=1;strokeColor=none;fillColor=none;align=center;verticalAlign=middle;whiteSpace=wrap;rounded=0;" parent="WIyWlLk6GJQsqaUBKTNV-1" vertex="1">
          <mxGeometry x="221" y="1344" width="20" height="20" as="geometry" />
        </mxCell>
        <mxCell id="zEoyoQ_A2az6b-zezW40-0" value="修改账号值" style="rounded=1;whiteSpace=wrap;html=1;fontSize=12;glass=0;strokeWidth=1;shadow=0;" vertex="1" parent="WIyWlLk6GJQsqaUBKTNV-1">
          <mxGeometry x="160.24" y="1803" width="120" height="40" as="geometry" />
        </mxCell>
        <mxCell id="zEoyoQ_A2az6b-zezW40-2" value="计算过期值" style="rounded=1;whiteSpace=wrap;html=1;fontSize=12;glass=0;strokeWidth=1;shadow=0;" vertex="1" parent="WIyWlLk6GJQsqaUBKTNV-1">
          <mxGeometry x="356.43" y="1720" width="120" height="40" as="geometry" />
        </mxCell>
        <mxCell id="zEoyoQ_A2az6b-zezW40-9" value="" style="edgeStyle=orthogonalEdgeStyle;rounded=0;orthogonalLoop=1;jettySize=auto;html=1;" edge="1" parent="WIyWlLk6GJQsqaUBKTNV-1" source="zEoyoQ_A2az6b-zezW40-4" target="WIyWlLk6GJQsqaUBKTNV-6">
          <mxGeometry relative="1" as="geometry" />
        </mxCell>
        <mxCell id="zEoyoQ_A2az6b-zezW40-11" value="" style="edgeStyle=orthogonalEdgeStyle;rounded=0;orthogonalLoop=1;jettySize=auto;html=1;" edge="1" parent="WIyWlLk6GJQsqaUBKTNV-1" source="zEoyoQ_A2az6b-zezW40-4" target="zEoyoQ_A2az6b-zezW40-10">
          <mxGeometry relative="1" as="geometry" />
        </mxCell>
        <mxCell id="zEoyoQ_A2az6b-zezW40-4" value="校验数据是否正确" style="rhombus;whiteSpace=wrap;html=1;shadow=0;fontFamily=Helvetica;fontSize=12;align=center;strokeWidth=1;spacing=6;spacingTop=-4;" vertex="1" parent="WIyWlLk6GJQsqaUBKTNV-1">
          <mxGeometry x="136" y="180" width="170" height="70" as="geometry" />
        </mxCell>
        <mxCell id="zEoyoQ_A2az6b-zezW40-10" value="抛出异常" style="rounded=1;whiteSpace=wrap;html=1;fontSize=12;glass=0;strokeWidth=1;shadow=0;" vertex="1" parent="WIyWlLk6GJQsqaUBKTNV-1">
          <mxGeometry x="351" y="195" width="120" height="40" as="geometry" />
        </mxCell>
        <mxCell id="zEoyoQ_A2az6b-zezW40-12" value="否" style="text;html=1;strokeColor=none;fillColor=none;align=center;verticalAlign=middle;whiteSpace=wrap;rounded=0;" vertex="1" parent="WIyWlLk6GJQsqaUBKTNV-1">
          <mxGeometry x="324" y="194" width="20" height="20" as="geometry" />
        </mxCell>
      </root>
    </mxGraphModel>
  </diagram>
</mxfile>
